<svg xmlns="http://www.w3.org/2000/svg" width="128" height="128" xmlns:v="https://vecta.io/nano"><defs><linearGradient id="A" href="#P"><stop offset="0" stop-color="#323232"/><stop offset=".077" stop-color="#dfe1e1"/><stop offset=".263" stop-color="#b6b1b1"/><stop offset=".5" stop-color="#8d8282"/><stop offset=".782" stop-color="#fff"/><stop offset=".901" stop-color="#dfd9df"/><stop offset="1" stop-color="#3a3a3a"/></linearGradient><filter x="-.269" width="1.538" y="-.285" height="1.571" id="B"><feGaussianBlur stdDeviation="1.434"/></filter><clipPath id="C"><path d="M-128.201-3.392l23.745 9.728 2.018-.16-1.381-10.744-1.935-1.264-19.215 1.386-3.232 1.054z" fill="#fff" fill-opacity="1" fill-rule="nonzero" stroke="none" stroke-width=".8" stroke-linecap="round" stroke-linejoin="round" stroke-miterlimit="4" stroke-dasharray="none" stroke-dashoffset="4" stroke-opacity="1"/></clipPath><radialGradient href="#A" id="D" gradientTransform="matrix(0.9728905,-8.15107,-18.526373,-2.211261,1957.2342,725.31677)" cx="53.235" cy="106.057" fx="53.235" fy="106.057" r="9.103"/><radialGradient id="E" gradientTransform="matrix(0.580847,-2.8009276,-6.4965168,-1.347227,701.00301,348.75795)" cx="53.347" cy="104.684" fx="53.347" fy="104.684" r="9.103" href="#P"><stop offset="0" stop-color="#fafafa"/><stop offset="1" stop-color="#fafafa" stop-opacity="0"/></radialGradient><radialGradient id="F" gradientTransform="matrix(-2.9339535,-1.0170467,-1.1904108,3.4340702,323.071,-252.78281)" cx="49.111" cy="105.438" fx="49.111" fy="105.438" r="10.207" href="#P"><stop offset="0" stop-color="#fff"/><stop offset="1" stop-color="#fff" stop-opacity="0"/></radialGradient><linearGradient href="#A" id="G" x1="-120.937" y1="-143.355" x2="-78.702" y2="-143.355"/><linearGradient id="H" x1="-274.62" y1="-73.018" x2="-121.063" y2="-131.228" href="#P"><stop offset="0"/><stop offset="1" stop-opacity="0"/></linearGradient><linearGradient id="I" x1="48.474" y1="68.032" x2="48.474" y2="7.955" href="#P"><stop offset="0" stop-color="#b4b4b6"/><stop offset=".5" stop-color="#9c9ca1"/><stop offset="1" stop-color="#cdcdd1"/></linearGradient><linearGradient id="J" gradientTransform="matrix(0.5415355,0,0,0.7222225,23.477667,-8.2222193)" x1="119.576" y1="23.793" x2="16" y2="109.651" href="#P"><stop offset="0" stop-color="#fff"/><stop offset=".426" stop-color="#fff"/><stop offset=".589" stop-color="#f1f1f1"/><stop offset=".802" stop-color="#eaeaea"/><stop offset="1" stop-color="#dfdfdf"/></linearGradient><linearGradient id="K" gradientTransform="matrix(0,-1.5975038,-2,0,96,199.26848)" x1="102.311" y1="-5.83" x2="74.33" y2="32" href="#P"><stop offset="0" stop-color="#fff"/><stop offset="1" stop-color="#fff" stop-opacity="0"/></linearGradient><linearGradient id="L" x1="6.16" y1="-30.366" x2="6.16" y2="-21.05" href="#P"><stop offset="0" stop-color="#06f"/><stop offset="1" stop-color="#80b3ff"/></linearGradient><filter id="M" x="-.059" y="-.063" width="1.118" height="1.126"><feGaussianBlur stdDeviation="3.049"/></filter><mask maskUnits="userSpaceOnUse" id="N"><rect ry="1.444" rx="1.2" y="8" x="-4" height="116" width="124" transform="matrix(1.145334 0 0 1.145334 15.087799 -38.432604)" fill="#fff" fill-opacity="1" stroke="none" filter="url(#M)"/></mask><path id="O" d="M29.734 93.558l76.566-35.724 3.743-5.05-27.965-18.691-6.908 1.951-41.307 47.801-4.129 9.714z"/><linearGradient id="P" gradientUnits="userSpaceOnUse"/></defs><rect ry=".187" rx=".154" y="28.13" x="8" height="92" width="92" fill="#618fd2" fill-opacity=".092"/><g transform="translate(32 -.13)"><g transform="matrix(0 1 1 0 0 0)"><rect width="92" height="92" x="28.13" y="-24" rx="3.962" opacity=".75" fill="url(#I)"/><rect ry="1.444" rx="1.2" y="-20" x="32.13" height="84" width="84" fill="url(#J)" fill-rule="evenodd"/></g><path d="M64 53.097C45.144 70.164 24.749 86.163 0 96.13V52.648C23.694 50.212 45.098 42.61 64 32.13v20.967z" fill="url(#K)" fill-rule="evenodd"/></g><g transform="translate(-16 20.13)" id="Q" fill="#7193c6" fill-opacity="1"><rect ry="1.351" rx=".077" y="-116" x="16" height="4" width="4" id="R" transform="matrix(0 1 -1 0 0 0)" opacity="1" fill="#7193c6" fill-opacity="1" stroke="none"/><use href="#R" width="128" height="128" y="8"/><use href="#R" id="S" width="128" height="128" y="16"/><use href="#R" id="T" width="128" height="128" y="24"/><use href="#R" id="U" width="128" height="128" y="32"/><use height="88" width="88" id="V" href="#S" y="24"/><use height="88" width="88" href="#T" y="24"/><use height="128" width="128" href="#T" y="32"/><use height="128" width="128" href="#U" y="32"/><use height="128" width="128" href="#V" y="32"/></g><use height="128" width="128" transform="matrix(0 -1 1 0 -20.129659 128.12964)" href="#Q"/><use height="128" width="128" href="#Q" x="-88"/><use height="128" width="128" transform="matrix(0 -1 1 0 -20.129651 216.12964)" href="#Q"/><use height="128" width="128" href="#W" x="96" y=".13"/><use height="128" width="128" href="#W" y="96.13"/><use height="128" width="128" href="#W" x="96" y="96.13"/><rect ry=".187" rx=".155" y="-32" height="12" width="12" id="W" transform="scale(1 -1)" fill="url(#L)" fill-opacity="1"/><rect transform="scale(1 -1)" id="X" width="4" height="4" x="4" y="-28" rx=".155" ry=".187" fill="#bfd9ff" fill-opacity="1"/><g fill="#a4c0e4"><use height="88" width="88" href="#X" x="96" y=".13"/><use height="88" width="88" href="#X" y="96.13"/><use height="88" width="88" href="#X" x="96" y="96.13"/></g><g transform="matrix(.873108 0 0 .873108 -13.173272 33.555799)" mask="url(#N)"><use href="#O" fill="url(#D)"/><path d="M107.325 50.939L32.898 86.552l-3.008 6.987 76.368-35.71 3.784-5.046-2.717-1.844z" fill="#555753"/><use href="#O" opacity=".107" fill="url(#E)"/><path d="m 29.733826,93.557578 76.565594,-35.724313 3.74271,-5.050163 -27.964957,-18.69067 -6.907623,1.950856 -41.307066,47.80066 -4.128658,9.71363 z" fill="none" stroke="url(#F)" stroke-width=".865" stroke-linejoin="round" stroke-dashoffset="4"/><rect width="39.715" height="37.455" x="27.311" y="81.415" transform="matrix(.65717 -.753743 .753743 .65717 0 0)" rx="3.877" fill="#2e3436"/><path transform="matrix(-.765168 -.64383 -.64383 .765168 0 0)" d="M-120.936-157.973h40.5v122.138h-40.5z" fill="url(#G)"/><path transform="matrix(-.765168 -.64383 -.64383 .765168 0 0)" d="M-119.895-161.844h39.223v126.007h-39.223z" fill="url(#H)"/><path transform="matrix(-.64383 .765168 .765168 .64383 0 0)" d="M-155.772 80.243h100.57v40.592h-100.57z" opacity=".525" fill="#e0e0e0"/><rect rx="1.249" transform="matrix(2.040664 -2.340546 2.340547 2.040664 304.62828 -199.57966)" y="-5.487" x="-104.119" height="12.062" width="12.79" clip-path="url(#C)" fill="#2e3436" filter="url(#B)"/></g></svg>